 <svg  version="1.0" xmlns="http://www.w3.org/2000/svg"  width="300.000000pt" height="233.000000pt" viewBox="0 0 300.000000 233.000000"  preserveAspectRatio="xMidYMid meet">  <g transform="translate(0.000000,233.000000) scale(0.100000,-0.100000)" fill="#2c2aa2" stroke="none"> <path d="M1405 2129 c-222 -18 -426 -111 -588 -268 -180 -173 -258 -335 -311 -643 -9 -52 10 -49 24 3 46 168 194 363 362 476 141 94 288 143 491 164 96 9 140 9 205 0 248 -36 448 -178 554 -394 57 -114 72 -183 72 -327 0 -107 -4 -136 -26 -202 -41 -123 -92 -204 -187 -298 -125 -124 -257 -187 -435 -209 l-66 -7 0 403 c0 274 -3 403 -10 403 -6 0 -30 9 -52 20 -50 24 -64 19 -16 -6 18 -9 37 -22 41 -28 4 -6 7 -182 6 -391 -3 -443 -6 -425 82 -425 109 0 273 56 373 127 165 118 268 272 313 468 23 102 13 285 -20 383 -73 211 -227 376 -430 460 -81 34 -251 66 -306 58 -20 -3 -74 -8 -121 -12 -171 -13 -348 -74 -488 -168 -81 -55 -140 -110 -210 -196 -29 -36 -57 -71 -63 -78 -50 -61 32 142 96 238 62 93 179 211 272 272 84 56 204 109 288 127 33 7 78 17 100 22 67 15 290 3 377 -20 164 -43 331 -142 451 -266 36 -38 117 -141 117 -150 0 -4 8 -19 19 -33 30 -43 82 -170 103 -252 11 -45 21 -128 25 -210 4 -116 2 -148 -16 -225 -58 -247 -194 -445 -404 -589 -249 -170 -558 -206 -861 -101 -37 13 -86 35 -107 50 l-39 25 0 550 c0 517 1 550 18 550 9 -1 28 -7 42 -15 14 -8 30 -14 35 -15 6 0 -14 14 -44 31 -29 17 -49 34 -45 37 5 4 113 59 241 122 l232 114 218 -109 c119 -61 218 -115 220 -120 2 -6 -9 -16 -24 -22 -16 -7 -35 -17 -43 -22 -8 -6 -35 -20 -60 -31 -113 -52 -282 -141 -277 -146 3 -3 100 42 216 100 116 58 219 106 228 106 17 0 18 -19 13 -314 -3 -173 -7 -316 -10 -319 -3 -2 -93 -49 -200 -102 -186 -94 -267 -142 -257 -152 3 -2 113 50 246 116 l241 121 -1 338 0 337 -257 127 -256 127 -252 -127 -253 -127 -5 -593 -5 -592 83 -40 c226 -109 503 -129 741 -53 182 57 366 192 491 358 205 275 249 644 113 964 -54 126 -117 220 -214 316 -214 215 -477 309 -790 284z"/> <path d="M1135 1392 c12 -13 230 -122 242 -122 4 0 -10 10 -32 23 -60 34 -221 110 -210 99z"/> </g> </svg> 